<svg  viewBox="0 0 92 40" fill="none" xmlns="http://www.w3.org/2000/svg"><path d="M17.82 16.88a8.92 8.92 0 0 1-8.73 6.83C3.71 23.73 0 19.45 0 14.49c0-5.08 3.83-9.16 8.95-9.16a8.92 8.92 0 0 1 8.84 6.97h-4.1a4.82 4.82 0 0 0-4.6-3.1 4.68 4.68 0 0 0-3.64 1.47 5.65 5.65 0 0 0-1.4 3.85c0 3.1 2.13 5.32 5.02 5.32a4.83 4.83 0 0 0 4.6-2.96h4.15ZM22.26 12.72c.14-1.68 1.79-3.9 4.8-3.9 2.93-.04 4.65 2.27 4.77 3.9h-9.57Zm13.57 3.18c.34-3.04-.41-5.76-2.5-7.95a8.61 8.61 0 0 0-6.3-2.62c-5.11 0-8.87 4.32-8.87 9.24 0 4.86 3.73 9.16 8.94 9.16 1.73 0 3.4-.5 4.8-1.5a9.8 9.8 0 0 0 3.45-4.36h-4.2a4.37 4.37 0 0 1-4.07 2.36c-2.3 0-4.7-1.53-4.9-4.3h13.65v-.03ZM50.62 14.54c0 2.68-1.9 5.37-5.16 5.37-3.06 0-5.05-2.48-5.05-5.4 0-2.79 2-5.32 5.12-5.32 2.96 0 5.06 2.46 5.06 5.33v.02h.03ZM36.5 20.3v2.92h3.9v-2.48c.9 1.7 2.96 3.04 5.63 3.04 4.6 0 8.63-3.43 8.63-9.31 0-6.15-4.46-9.14-8.46-9.14a7.25 7.25 0 0 0-5.63 2.7V0h-4.05l-.02 20.3ZM59.32 12.72c.15-1.68 1.8-3.9 4.8-3.9 2.94-.04 4.66 2.27 4.78 3.9h-9.58ZM72.9 15.9c.34-3.04-.41-5.76-2.5-7.95a8.67 8.67 0 0 0-6.33-2.62c-5.11 0-8.87 4.32-8.87 9.24 0 4.86 3.73 9.16 8.95 9.16 1.72 0 3.4-.5 4.8-1.5a9.8 9.8 0 0 0 3.44-4.36h-4.2a4.37 4.37 0 0 1-4.07 2.36c-2.3 0-4.7-1.53-4.9-4.3H72.9v-.03ZM77.55 14.52c0-3.04 2.23-5.3 5-5.3 2.76 0 5 2.23 5 5.3 0 3.04-2.24 5.3-5 5.3-2.77 0-5-2.24-5-5.28v-.02Zm-4.05.02c0 4.48 3.18 9.17 9.05 9.17 5.86 0 9.04-4.7 9.04-9.17 0-4.45-3.18-9.17-9.04-9.17-5.87 0-9.05 4.72-9.05 9.15v.02Z" fill="#004585"/><path d="m34.5 35.82.53 1.53h-1.07l.54-1.53Zm-.46-1.02-1.58 4.15h.92l.32-.92h1.55l.31.92h.95l-1.55-4.15h-.92ZM39.37 37.93c.05.1.12.17.2.25.07.05.16.1.29.14.12.03.21.05.33.05.08 0 .17 0 .27-.02l.27-.08c.07-.05.14-.1.2-.17a.44.44 0 0 0 .06-.26c0-.13-.02-.2-.1-.27a.84.84 0 0 0-.28-.17c-.12-.05-.25-.1-.4-.12l-.43-.12-.46-.15c-.14-.05-.29-.12-.39-.22a.99.99 0 0 1-.29-.34c-.07-.15-.1-.3-.1-.49 0-.22.05-.39.15-.56.1-.14.22-.29.37-.38.14-.1.31-.2.5-.25a2.63 2.63 0 0 1 1.19 0 1.34 1.34 0 0 1 .9.66c.1.17.14.36.14.6h-.87a.67.67 0 0 0-.07-.3c-.05-.08-.1-.16-.17-.2-.07-.05-.17-.08-.24-.1-.1-.03-.2-.03-.32-.03-.07 0-.14 0-.22.03l-.19.07c-.05.05-.12.1-.15.15-.04.05-.04.12-.04.22 0 .07.02.14.04.2.03.04.1.09.2.14.1.05.22.1.39.12l.63.17.31.07c.15.05.27.1.41.2.15.1.25.21.37.36.1.15.14.34.14.58 0 .2-.05.37-.12.54a.95.95 0 0 1-.34.41c-.14.1-.31.22-.53.27a2.84 2.84 0 0 1-1.4.02 1.6 1.6 0 0 1-.59-.26 1.2 1.2 0 0 1-.39-.46c-.1-.2-.14-.42-.14-.66h.87a.39.39 0 0 0 0 .36ZM42.47 36.8c.08-.2.17-.37.32-.52.14-.15.29-.24.48-.32.2-.07.42-.12.63-.12a1.62 1.62 0 0 1 1.12.44c.14.15.24.32.31.51a1.86 1.86 0 0 1 0 1.31c-.07.2-.17.37-.31.51-.15.15-.3.25-.49.32s-.4.12-.63.12c-.24 0-.46-.02-.63-.12-.2-.07-.36-.17-.48-.32a1.39 1.39 0 0 1-.32-.5 1.86 1.86 0 0 1 0-1.32Zm.75 1.01c.03.12.08.22.13.32.04.1.12.17.21.22.1.05.22.07.34.07a.8.8 0 0 0 .37-.07c.1-.05.17-.12.22-.22.04-.1.1-.2.12-.32.02-.12.02-.24.02-.36s0-.25-.02-.37c-.03-.12-.08-.22-.12-.31a.48.48 0 0 0-.22-.22.8.8 0 0 0-.37-.08.64.64 0 0 0-.34.08.48.48 0 0 0-.21.22c-.05.1-.1.2-.13.31-.02.12-.02.25-.02.37-.02.12 0 .24.02.36ZM46.89 35.94v.41h.02c.1-.17.24-.29.41-.39.17-.07.34-.12.51-.12.22 0 .41.03.53.1.15.05.25.15.34.24.08.1.15.25.17.4.03.14.05.3.05.5v1.85h-.82v-1.7c0-.24-.05-.44-.12-.56-.08-.12-.22-.2-.42-.2-.21 0-.38.08-.48.2-.1.14-.15.36-.15.66v1.58h-.82v-3.02h.78v.05ZM50.5 38.25c.12.12.29.17.53.17.17 0 .32-.05.44-.12.12-.07.2-.17.22-.27h.72c-.12.37-.29.63-.53.78a1.67 1.67 0 0 1-1.5.12c-.2-.07-.34-.2-.49-.32a1.8 1.8 0 0 1-.31-.5c-.08-.2-.1-.42-.1-.64 0-.22.02-.44.12-.63.07-.2.17-.37.32-.51.14-.15.29-.24.48-.34a1.71 1.71 0 0 1 1.31.02 1.46 1.46 0 0 1 .73.95c.05.22.07.44.05.68h-2.16c0 .3.05.49.17.6Zm.94-1.6a.62.62 0 0 0-.46-.18.77.77 0 0 0-.34.08c-.1.05-.14.1-.22.17-.04.07-.1.14-.12.22l-.04.2h1.33a.62.62 0 0 0-.15-.5ZM53.84 35.94v.39a.8.8 0 0 1 .4-.37c.14-.07.3-.12.5-.12.24 0 .44.05.6.15.18.1.32.22.44.36.12.15.2.32.24.51a2.6 2.6 0 0 1 0 1.2c-.04.19-.14.34-.24.48-.12.15-.24.27-.41.34-.17.1-.36.12-.58.12-.2 0-.37-.05-.51-.12-.15-.07-.3-.2-.39-.34v1.44h-.82v-4.06h.77v.02Zm1.07 2.4c.1-.04.17-.11.22-.21.05-.1.1-.2.12-.32.02-.12.02-.24.02-.36s-.02-.25-.05-.37c-.02-.12-.07-.22-.12-.31a.48.48 0 0 0-.21-.22.7.7 0 0 0-.34-.08.7.7 0 0 0-.34.08.48.48 0 0 0-.22.22c-.05.1-.1.2-.12.31-.03.12-.03.25-.03.37s.03.24.05.36c.03.12.07.22.12.32.05.1.12.17.22.22.1.05.2.07.34.07.12 0 .24-.02.34-.07ZM56.66 36.86c0-.2.04-.36.14-.48s.2-.22.32-.32c.12-.07.29-.12.43-.17a3.64 3.64 0 0 1 .95-.02c.14.02.29.07.43.12.13.07.25.14.32.27.07.12.12.26.12.43v1.56a1.97 1.97 0 0 0 .1.68h-.85c-.03-.05-.03-.1-.05-.15l-.02-.14a.94.94 0 0 1-.46.29c-.17.05-.37.07-.56.07-.15 0-.27-.02-.41-.05a.66.66 0 0 1-.32-.17.92.92 0 0 1-.22-.29 1.05 1.05 0 0 1-.07-.41c0-.17.02-.32.1-.41.05-.13.14-.2.24-.27.1-.07.2-.12.31-.15l.37-.07c.12-.02.24-.02.36-.05.12 0 .22-.02.32-.05.1-.02.17-.05.21-.1a.28.28 0 0 0 .08-.19c0-.1-.03-.17-.05-.22a.3.3 0 0 0-.12-.12.35.35 0 0 0-.17-.05l-.22-.02c-.17 0-.3.02-.39.1-.1.07-.14.19-.17.33h-.72v.05Zm1.89.64-.13.07c-.04.02-.1.02-.16.05l-.2.02c-.07 0-.12.03-.2.03-.07 0-.11.02-.19.04-.05.03-.12.05-.14.08-.05.02-.07.07-.1.12a.46.46 0 0 0-.05.2c0 .07.03.14.05.19.03.05.07.1.12.12l.17.07c.07 0 .12.03.2.03.17 0 .29-.03.38-.08.1-.04.15-.12.2-.19a.4.4 0 0 0 .07-.22l.02-.2v-.33h-.04ZM60.9 35.94v.56c.05-.1.1-.17.14-.27l.22-.2c.1-.04.17-.1.27-.11.1-.03.2-.05.29-.05.05 0 .12 0 .17.02v.78c-.05 0-.07-.03-.15-.03h-.14c-.15 0-.3.03-.39.08-.1.05-.2.12-.24.22-.08.1-.12.2-.15.31a1.9 1.9 0 0 0-.05.4V39h-.82V36h.85v-.05ZM66.91 35.91a.57.57 0 0 0-.2-.21.58.58 0 0 0-.26-.15c-.1-.05-.22-.05-.32-.05-.19 0-.38.05-.53.12a.86.86 0 0 0-.34.32c-.1.15-.14.3-.2.46a1.9 1.9 0 0 0 .2 1.48c.1.13.2.25.34.32.15.07.32.12.53.12.3 0 .51-.1.66-.27.14-.17.24-.38.29-.68h.87c-.02.27-.07.49-.17.7a1.64 1.64 0 0 1-.95.88 2.13 2.13 0 0 1-1.54-.04 2.02 2.02 0 0 1-1.05-1.15c-.1-.26-.14-.53-.14-.85 0-.31.05-.6.14-.87.1-.27.22-.49.42-.7a1.9 1.9 0 0 1 1.48-.63 2.03 2.03 0 0 1 1.2.38c.18.12.3.29.4.46.1.17.16.39.19.63h-.87l-.15-.27ZM68.56 36.8a1.39 1.39 0 0 1 .8-.84 1.71 1.71 0 0 1 1.26 0 1.39 1.39 0 0 1 .8.83 1.86 1.86 0 0 1 0 1.31 1.39 1.39 0 0 1-.8.83c-.2.07-.41.12-.63.12-.22 0-.46-.02-.63-.12a1.39 1.39 0 0 1-.8-.83c-.07-.2-.12-.41-.12-.65.02-.25.05-.46.12-.66Zm.75 1.01c.02.12.07.22.12.32.05.1.12.17.22.22.1.05.22.07.34.07.12 0 .27-.02.36-.07.1-.05.17-.12.22-.22.05-.1.1-.2.12-.32.03-.12.03-.24.03-.36s0-.25-.03-.37c-.02-.12-.07-.22-.12-.31a.48.48 0 0 0-.22-.22.8.8 0 0 0-.36-.08.64.64 0 0 0-.34.08.48.48 0 0 0-.22.22c-.05.1-.1.2-.12.31-.02.12-.02.25-.02.37s0 .24.02.36ZM73 35.94v.41c.1-.14.24-.26.38-.36.15-.1.34-.12.54-.12s.36.02.5.12c.15.07.27.2.37.39.1-.12.22-.25.36-.34.15-.1.34-.15.54-.15.17 0 .31.03.43.05.15.05.25.1.34.2.1.1.17.19.22.33.05.15.07.32.07.52V39h-.82v-2c0-.09-.03-.16-.07-.23-.03-.08-.1-.13-.15-.15-.07-.05-.17-.05-.27-.05s-.21.03-.29.07a.56.56 0 0 0-.17.17.41.41 0 0 0-.07.25c-.02.1-.02.2-.02.27V39h-.83v-1.97c0-.1-.02-.17-.05-.24a.33.33 0 0 0-.14-.17.52.52 0 0 0-.3-.07c-.04 0-.09 0-.14.02a.73.73 0 0 0-.2.1.5.5 0 0 0-.14.22.81.81 0 0 0-.07.36V39h-.82V36h.8v-.05ZM78.33 35.94v.39a.8.8 0 0 1 .39-.37c.14-.07.31-.12.5-.12.25 0 .44.05.61.15.17.1.32.22.44.36.12.15.2.32.24.51a2.6 2.6 0 0 1 0 1.2c-.05.19-.15.34-.24.48-.12.15-.24.27-.41.34-.17.1-.37.12-.59.12-.19 0-.36-.05-.5-.12-.15-.07-.3-.2-.4-.34v1.44h-.82v-4.06h.78v.02Zm1.07 2.4c.1-.04.16-.11.21-.21.05-.1.1-.2.12-.32.03-.12.03-.24.03-.36s-.03-.25-.05-.37c-.02-.12-.07-.22-.12-.31a.48.48 0 0 0-.22-.22.7.7 0 0 0-.34-.08.7.7 0 0 0-.34.08.48.48 0 0 0-.22.22c-.04.1-.1.2-.12.31-.02.12-.02.25-.02.37s.02.24.05.36c.02.12.07.22.12.32.05.1.12.17.22.22.1.05.19.07.34.07a.7.7 0 0 0 .34-.07ZM81.14 36.86c0-.2.05-.36.15-.48.1-.12.19-.22.31-.32s.3-.12.44-.17a3.64 3.64 0 0 1 .94-.02c.15.02.3.07.44.12.15.05.24.14.31.27.08.12.13.26.13.43v1.56a1.97 1.97 0 0 0 .1.68h-.8l-.06-.15-.02-.14a.94.94 0 0 1-.46.29c-.17.05-.36.07-.56.07-.14 0-.26-.02-.41-.05a.66.66 0 0 1-.32-.17.66.66 0 0 1-.21-.29 1.05 1.05 0 0 1-.08-.41c0-.17.03-.32.1-.41.05-.13.15-.2.24-.27.1-.07.2-.12.32-.15l.36-.07c.12-.02.24-.02.37-.05.12 0 .21-.02.31-.05.1-.02.17-.05.22-.1a.28.28 0 0 0 .07-.19c0-.1-.02-.17-.05-.22a.35.35 0 0 0-.3-.17l-.2-.02c-.18 0-.3.02-.4.1-.1.07-.14.19-.16.33h-.78v.05Zm1.92.64a.53.53 0 0 1-.13.07c-.04.02-.1.02-.16.05l-.2.02c-.07 0-.12.03-.2.03-.07 0-.11.02-.19.04-.05.03-.12.05-.14.08-.05.02-.07.07-.1.12a.46.46 0 0 0-.05.2c0 .07.03.14.05.19.03.05.07.1.12.12l.17.07c.07 0 .12.03.2.03.17 0 .29-.03.38-.08.1-.04.15-.12.2-.19a.4.4 0 0 0 .07-.22l.02-.2v-.33h-.04ZM85.38 35.94v.41h.03c.1-.17.24-.29.41-.39.17-.07.34-.12.5-.12.23 0 .42.03.54.1.15.05.24.15.34.24.07.1.15.25.17.4.03.14.05.3.05.5v1.85h-.82v-1.7c0-.24-.05-.44-.13-.56-.07-.12-.21-.2-.4-.2-.23 0-.4.08-.5.2-.09.14-.14.36-.14.66v1.58h-.82v-3.02h.77v.05ZM89.26 39.85c-.17.1-.39.15-.65.15h-.24c-.08 0-.17 0-.25-.02v-.68l.25.02h.24c.1 0 .2-.05.24-.12a.41.41 0 0 0 .07-.25c0-.07 0-.12-.02-.19l-1.04-2.82h.87l.68 2.07.65-2.07h.85l-1.26 3.38c-.12.27-.24.44-.39.53Z" fill="#23358B"/><path d="M90.64 27.62c-.19-.1-3.49-2.06-3.51-2.06l-.32-.2.03 1.68-4.53.02c-.44 0-.59.13-.8.4l-.51.63c-.08.1-.15.17-.22.17-.08 0-.15-.05-.22-.17l-2.23-3.21a.72.72 0 0 0-.6-.35c-.23 0-.44.13-.61.35l-2.3 3.23c-.08.1-.15.15-.22.15a.26.26 0 0 1-.22-.15l-2.3-3.23a.72.72 0 0 0-.61-.35.72.72 0 0 0-.6.35l-2.29 3.23c-.07.1-.14.15-.24.15a.26.26 0 0 1-.22-.15l-2.35-3.23a.72.72 0 0 0-.6-.35.72.72 0 0 0-.61.35l-2.3 3.23c-.08.1-.15.15-.22.15s-.17-.05-.24-.15l-.44-.58c-.39-.5-.46-.51-1.07-.51l-56.31.19a1.85 1.85 0 0 0-1.63-.92c-1.02 0-1.87.82-1.87 1.82a1.86 1.86 0 0 0 3.47.9H18.33l32.17-.03c5.8 0 7.03.1 7.95.13h.65c.49 0 .73.02 1.02.43l1.29 1.83c.14.22.36.34.6.34.25 0 .46-.12.61-.34l2.33-3.26c.07-.1.14-.15.24-.15.07 0 .17.05.24.15l2.35 3.26c.15.22.37.34.6.34.25 0 .47-.12.62-.34l2.25-3.21c.07-.1.15-.15.22-.15s.17.05.22.15l2.3 3.23c.15.22.36.34.6.34.25 0 .47-.12.61-.34l2.28-3.23c.07-.1.15-.15.22-.15s.17.05.22.15l2.25 3.23c.15.22.37.34.6.34.25 0 .47-.12.61-.34l1.34-1.9c.29-.46.31-.46.9-.46l3.2-.02-.03 1.8 3.88-2.26c.2-.12.29-.27.29-.42.02-.24-.15-.41-.32-.5Z" fill="#E4240E"/></svg>
