<svg xmlns="http://www.w3.org/2000/svg" viewBox="0 0 260 70" role="img" aria-label="Schneider Electric">
  <rect width="260" height="70" fill="none"/>
  <g fill="#009530">
    <path d="M24 12c-8 0-14 5-14 12 0 15 22 10 22 18 0 3-3 5-8 5-6 0-11-2-17-6v12c5 3 10 5 17 5 12 0 20-6 20-16 0-16-22-12-22-19 0-2 2-4 7-4 4 0 8 1 14 4V14c-6-2-12-2-19-2z"/>
    <path d="M64 31c-8 0-14 6-14 14s6 14 15 14c4 0 8-1 12-3v-9c-4 2-7 3-10 3-4 0-7-2-7-6s3-6 7-6c3 0 6 1 10 3v-9c-4-1-8-1-13-1z"/>
    <path d="M96 31c-9 0-15 6-15 14s6 14 16 14c5 0 10-1 15-4v-8c-5 3-8 4-12 4-5 0-8-2-9-6h22c1-9-6-14-17-14zm-5 9c1-3 3-4 6-4s5 1 6 4H91z"/>
  </g>
  <text x="124" y="31" font-family="Arial, Helvetica, sans-serif" font-size="20" font-weight="700" fill="#009530">Schneider</text>
  <text x="124" y="53" font-family="Arial, Helvetica, sans-serif" font-size="18" font-weight="700" fill="#009530">Electric</text>
</svg>
